<?xml version="1.0" standalone="no"?>
<svg version="1.1" xmlns="http://www.w3.org/2000/svg" viewBox="0 0 1000 1000"><path d="M0.000 500.000 L 0.000 1000.000 500.000 1000.000 L 1000.000 1000.000 1000.000 500.000 L 1000.000 0.000 500.000 0.000 L 0.000 0.000 0.000 500.000 M202.500 149.936 C 209.256 150.598,214.616 151.980,224.000 155.480 C 230.875 158.045,241.280 161.848,247.122 163.931 C 255.805 167.028,260.460 169.563,272.622 177.817 C 299.987 196.389,319.841 216.285,339.167 244.500 C 346.130 254.666,358.394 273.853,362.497 281.000 C 364.234 284.025,368.284 291.000,371.497 296.500 C 374.710 302.000,379.124 309.650,381.307 313.500 C 383.489 317.350,387.078 323.650,389.283 327.500 C 395.589 338.515,401.540 349.228,410.946 366.500 C 418.989 381.268,430.098 401.354,439.705 418.500 C 447.338 432.123,459.464 452.765,472.309 474.000 C 479.461 485.825,487.347 499.100,489.833 503.500 C 498.215 518.338,517.682 546.559,530.876 563.000 C 549.158 585.782,572.574 608.436,592.500 622.617 C 612.793 637.060,638.888 649.276,661.506 654.920 C 710.345 667.108,754.343 659.645,809.121 629.881 C 824.000 621.797,830.177 616.688,839.203 605.000 C 840.690 603.075,841.927 601.995,841.953 602.601 C 842.030 604.394,832.758 616.061,826.401 622.171 C 815.740 632.416,798.297 643.932,784.643 649.739 C 747.562 665.508,714.206 671.746,677.000 669.870 C 632.735 667.637,581.246 647.872,541.106 617.704 C 507.581 592.507,471.806 549.790,440.855 498.000 C 427.527 475.698,423.822 468.915,409.991 441.500 C 395.431 412.637,380.047 379.941,358.000 331.000 C 347.136 306.884,332.171 276.478,324.638 263.214 C 305.353 229.259,276.822 195.032,252.500 176.675 C 238.842 166.366,213.836 155.222,195.172 151.127 C 192.792 150.605,190.579 149.913,190.255 149.589 C 189.481 148.814,191.685 148.876,202.500 149.936 M239.000 154.902 C 293.818 169.657,341.036 202.637,378.084 252.051 C 394.204 273.551,421.012 315.100,454.500 370.487 C 458.350 376.854,464.875 387.453,469.000 394.038 C 475.437 404.315,485.139 420.066,504.899 452.319 C 507.319 456.269,511.098 462.425,513.298 466.000 C 517.706 473.163,543.455 512.007,550.088 521.500 C 552.394 524.800,558.830 533.296,564.390 540.379 C 569.951 547.463,575.375 554.438,576.445 555.879 C 586.062 568.841,607.694 590.980,621.287 601.772 C 648.578 623.440,669.576 633.962,702.404 642.421 C 723.060 647.744,752.362 647.950,771.617 642.906 C 775.811 641.808,779.424 641.090,779.645 641.312 C 780.112 641.779,768.859 646.000,767.147 646.000 C 766.516 646.000,766.000 646.342,766.000 646.761 C 766.000 647.861,753.377 648.462,730.500 648.449 C 712.595 648.440,709.123 648.152,697.349 645.700 C 690.116 644.193,681.609 642.069,678.443 640.980 C 671.553 638.610,670.880 638.567,673.500 640.666 L 675.500 642.269 673.500 641.545 C 669.878 640.234,666.552 639.614,662.845 639.556 C 660.836 639.525,659.395 639.169,659.645 638.765 C 659.895 638.361,658.657 638.319,656.894 638.671 C 654.779 639.094,653.909 638.957,654.334 638.268 C 654.729 637.630,653.176 636.954,650.343 636.529 C 647.793 636.146,644.985 635.473,644.103 635.033 C 639.738 632.855,634.458 630.985,631.000 630.394 C 628.573 629.979,610.005 621.162,609.000 619.948 C 608.207 618.989,601.810 616.000,600.552 616.000 C 599.925 616.000,597.481 614.200,595.122 612.000 C 590.730 607.904,588.675 606.698,591.128 609.655 C 592.401 611.190,592.278 611.194,589.427 609.720 C 585.911 607.903,583.113 605.000,584.878 605.000 C 585.495 605.000,586.000 605.402,586.000 605.893 C 586.000 606.384,586.777 607.084,587.726 607.449 C 588.959 607.921,588.750 607.363,586.996 605.496 C 585.645 604.058,584.381 603.358,584.186 603.941 C 583.693 605.422,582.000 605.268,582.000 603.741 C 582.000 603.048,581.100 601.919,580.000 601.232 C 578.814 600.492,578.000 600.394,578.000 600.992 C 578.000 603.534,571.353 599.729,567.535 595.000 C 562.572 588.853,557.630 584.000,556.334 584.000 C 554.842 584.000,551.305 580.655,541.496 569.967 C 534.072 561.879,536.260 564.847,545.420 575.291 C 549.178 579.575,552.060 583.273,551.825 583.508 C 551.368 583.966,537.135 568.082,529.865 559.000 C 517.359 543.378,493.513 508.933,489.020 500.000 C 487.775 497.525,485.277 493.025,483.468 490.000 C 479.638 483.594,460.491 450.738,446.753 427.000 C 438.210 412.237,418.708 377.399,409.249 360.000 C 396.400 336.368,360.064 273.253,353.189 262.626 C 332.109 230.038,313.202 207.148,295.247 192.476 C 293.458 191.014,292.290 189.339,292.652 188.754 C 293.013 188.169,292.880 187.956,292.356 188.280 C 291.832 188.604,288.928 186.761,285.903 184.184 C 282.878 181.608,278.283 178.415,275.693 177.088 C 273.102 175.762,269.133 172.970,266.874 170.883 C 262.614 166.951,249.317 160.990,231.500 155.026 C 223.904 152.484,223.202 152.082,227.000 152.448 C 229.475 152.688,234.875 153.792,239.000 154.902 M789.583 168.250 C 789.996 168.662,788.121 169.006,785.417 169.013 C 775.096 169.041,755.901 178.232,750.278 185.838 C 745.694 192.038,741.976 201.137,740.477 209.825 C 739.122 217.675,738.980 240.741,739.282 403.618 C 739.664 609.427,739.234 597.040,746.490 610.850 C 748.714 615.081,752.437 620.020,755.877 623.301 C 760.713 627.914,762.897 629.168,770.289 631.575 C 782.540 635.565,782.025 637.510,769.500 634.555 C 752.793 630.613,741.690 618.908,738.455 601.826 C 736.801 593.092,735.147 586.929,735.079 589.250 C 735.005 591.834,733.687 592.921,732.655 591.250 C 732.400 590.837,730.798 590.556,729.095 590.625 C 723.742 590.841,723.661 590.884,725.128 592.692 C 725.882 593.623,726.018 594.096,725.428 593.743 C 724.839 593.391,723.606 593.979,722.688 595.051 C 721.770 596.123,721.295 597.000,721.632 597.000 C 721.969 597.000,721.685 597.675,721.000 598.500 C 719.413 600.413,718.000 600.424,718.000 598.525 C 718.000 597.353,717.470 597.251,715.425 598.029 C 711.469 599.533,709.879 601.459,711.314 603.011 C 712.234 604.006,712.220 604.135,711.250 603.588 C 710.483 603.155,710.000 603.484,710.000 604.441 C 710.000 605.298,709.212 606.019,708.250 606.042 C 705.762 606.101,699.483 618.865,701.552 619.658 C 702.348 619.964,703.000 621.096,703.000 622.174 C 703.000 623.630,703.479 623.983,704.859 623.545 C 705.903 623.213,707.237 623.581,707.904 624.384 C 708.950 625.645,720.408 627.746,721.335 626.847 C 721.532 626.656,722.494 627.165,723.473 627.977 C 725.246 629.449,730.247 630.347,735.000 630.047 C 740.251 629.716,741.700 629.753,748.519 630.392 C 760.619 631.526,762.661 632.902,751.500 632.401 C 746.000 632.154,728.385 631.511,712.356 630.972 C 696.326 630.433,681.872 629.724,680.235 629.397 L 677.260 628.802 681.527 624.869 C 684.072 622.522,687.316 617.855,689.568 613.297 C 696.847 598.564,696.414 606.640,696.484 484.500 C 696.536 394.241,695.620 205.218,695.074 193.500 C 694.997 191.850,695.188 189.465,695.499 188.200 C 695.809 186.935,690.042 197.735,682.683 212.200 C 659.752 257.273,645.233 284.746,602.458 364.000 C 591.029 385.175,578.895 407.675,575.493 414.000 C 565.775 432.068,541.488 477.902,538.284 484.219 L 535.383 489.939 531.689 484.454 L 527.995 478.968 530.329 475.234 C 531.612 473.180,537.309 462.500,542.989 451.500 C 557.697 423.013,591.627 359.845,611.473 324.000 C 613.757 319.875,620.040 308.400,625.435 298.500 C 639.245 273.160,640.399 271.052,643.235 266.000 C 645.625 261.741,652.463 249.222,662.983 229.849 C 673.327 210.796,689.701 182.671,693.040 178.220 C 697.584 172.162,703.627 168.829,711.418 168.082 C 720.364 167.226,788.704 167.372,789.583 168.250 M280.000 175.354 C 280.000 176.038,290.701 183.000,291.752 183.000 C 292.414 183.000,289.405 180.843,282.750 176.546 C 281.238 175.569,280.000 175.033,280.000 175.354 M264.885 202.233 C 264.495 206.744,265.242 208.599,266.000 205.000 C 266.405 203.075,266.796 243.237,266.868 294.250 C 266.947 350.005,266.634 387.000,266.082 387.000 C 265.577 387.000,264.452 387.273,263.582 387.607 C 262.147 388.157,262.000 380.713,262.000 307.766 C 262.000 225.468,262.602 195.538,264.200 198.394 C 264.685 199.259,264.993 200.987,264.885 202.233 M745.827 400.750 C 745.732 505.113,745.341 585.325,744.959 579.000 C 744.075 564.392,743.792 230.320,744.654 219.250 C 745.007 214.713,745.455 211.000,745.648 211.000 C 745.842 211.000,745.922 296.387,745.827 400.750 M347.280 331.750 C 351.020 341.472,360.880 370.607,367.502 391.500 C 378.481 426.138,379.959 430.736,390.487 463.000 C 409.691 521.852,419.041 546.252,433.536 575.336 C 441.159 590.632,443.899 595.304,455.907 613.478 C 465.284 627.669,480.839 643.044,492.000 649.151 C 496.675 651.709,502.975 654.629,506.000 655.639 C 509.823 656.915,510.840 657.573,509.336 657.796 C 506.555 658.208,491.797 655.182,490.550 653.943 C 489.220 652.623,487.735 652.763,488.580 654.129 C 489.097 654.965,479.957 655.078,453.389 654.565 C 423.611 653.989,416.053 654.126,409.000 655.373 C 404.325 656.200,397.125 657.160,393.000 657.507 C 388.875 657.854,383.813 658.293,381.750 658.483 C 379.688 658.673,378.000 658.469,378.000 658.031 C 378.000 657.592,381.030 656.909,384.733 656.512 C 399.258 654.956,411.377 649.321,416.947 641.532 L 420.500 636.565 420.500 624.532 C 420.500 610.309,418.263 599.979,403.602 546.500 C 398.995 529.694,390.535 497.381,388.548 489.000 C 387.310 483.775,385.581 477.025,384.706 474.000 C 383.831 470.975,379.914 455.900,376.000 440.500 C 372.086 425.100,367.592 407.775,366.014 402.000 C 356.443 366.989,351.446 349.273,348.527 340.000 C 343.914 325.346,343.816 325.000,344.275 325.000 C 344.500 325.000,345.852 328.038,347.280 331.750 M619.345 343.543 C 619.019 344.392,618.538 344.872,618.276 344.610 C 618.014 344.348,618.096 343.653,618.459 343.067 C 619.445 341.471,620.021 341.781,619.345 343.543 M317.000 388.061 C 337.152 389.403,353.318 393.030,355.760 396.756 C 356.591 398.025,357.097 399.236,356.884 399.449 C 356.671 399.662,354.248 399.256,351.499 398.548 C 348.749 397.840,340.200 396.467,332.500 395.498 C 309.697 392.628,268.189 394.883,248.772 400.047 C 242.644 401.677,233.775 406.605,230.045 410.453 C 224.977 415.683,222.000 425.269,222.000 436.362 C 222.000 444.421,223.072 453.911,224.566 459.071 C 224.816 459.935,227.424 461.399,230.362 462.325 C 245.412 467.069,258.056 480.843,264.486 499.500 C 265.434 502.250,266.827 508.775,267.581 514.000 C 268.833 522.680,268.808 523.608,267.285 524.750 C 264.021 527.197,263.003 526.259,262.942 520.750 C 262.852 512.488,259.946 503.329,253.994 492.541 C 244.963 476.172,235.462 468.431,221.034 465.689 L 215.182 464.577 214.464 451.167 C 213.644 435.859,214.161 427.699,216.413 420.402 C 221.006 405.524,236.742 395.628,261.500 392.048 C 265.900 391.412,271.075 390.488,273.000 389.995 C 276.723 389.042,296.311 387.365,299.250 387.748 C 300.212 387.874,301.000 387.484,301.000 386.881 C 301.000 386.230,301.710 386.078,302.750 386.507 C 303.712 386.904,310.125 387.603,317.000 388.061 M228.683 428.188 C 228.364 428.985,228.127 428.748,228.079 427.583 C 228.036 426.529,228.272 425.939,228.604 426.271 C 228.936 426.603,228.972 427.466,228.683 428.188 M227.662 435.250 C 227.385 435.938,227.158 435.375,227.158 434.000 C 227.158 432.625,227.385 432.063,227.662 432.750 C 227.940 433.438,227.940 434.563,227.662 435.250 M230.312 456.917 C 229.516 457.979,228.733 455.680,228.399 451.299 L 228.033 446.500 229.328 451.500 C 230.041 454.250,230.483 456.688,230.312 456.917 M219.133 472.538 C 224.097 473.933,229.938 476.198,232.113 477.572 C 245.702 486.150,253.009 501.810,254.393 525.319 L 254.912 534.139 251.529 535.552 C 249.668 536.330,247.830 537.960,247.444 539.175 C 247.059 540.390,246.463 554.910,246.122 571.442 C 245.518 600.631,245.443 601.495,243.515 601.322 C 242.423 601.224,241.151 601.674,240.688 602.322 C 240.226 602.970,240.068 583.957,240.339 560.070 C 240.633 534.093,240.439 514.201,239.856 510.570 C 237.791 497.714,230.539 487.301,220.720 483.096 C 214.765 480.546,204.094 478.000,199.361 478.000 C 194.112 478.000,181.262 482.405,178.246 485.238 C 172.035 491.074,169.533 499.621,171.000 509.998 C 172.199 518.486,176.273 524.271,187.245 533.068 C 192.054 536.924,196.615 541.299,197.381 542.789 C 199.802 547.508,200.887 555.879,202.007 578.500 C 202.607 590.600,203.339 601.470,203.633 602.656 C 203.928 603.841,205.144 605.072,206.335 605.392 C 207.526 605.711,253.838 605.979,309.250 605.986 C 375.741 605.995,410.000 606.340,410.000 607.000 C 410.000 608.079,409.988 608.011,411.022 612.596 L 411.720 615.692 387.610 616.362 C 374.349 616.730,326.747 617.014,281.827 616.993 L 200.154 616.955 199.555 610.727 C 199.226 607.302,198.287 594.150,197.470 581.500 C 196.652 568.850,195.597 556.925,195.125 555.000 C 193.855 549.822,191.062 545.581,187.163 542.910 C 185.259 541.605,180.242 537.152,176.014 533.014 C 166.678 523.876,163.816 517.641,163.793 506.388 C 163.768 494.792,166.094 488.720,173.327 481.491 C 179.993 474.830,185.338 472.349,195.978 470.975 C 205.923 469.691,209.985 469.965,219.133 472.538 M250.757 492.749 C 253.702 499.259,255.762 505.035,254.769 504.000 C 253.424 502.598,245.214 483.933,246.361 484.884 C 247.099 485.497,249.078 489.036,250.757 492.749 M176.662 502.250 C 176.385 502.938,176.158 502.375,176.158 501.000 C 176.158 499.625,176.385 499.063,176.662 499.750 C 176.940 500.438,176.940 501.563,176.662 502.250 M176.718 510.736 C 176.488 512.256,176.294 511.250,176.286 508.500 C 176.279 505.750,176.467 504.506,176.704 505.736 C 176.941 506.966,176.947 509.216,176.718 510.736 M338.264 519.704 C 337.034 519.941,334.784 519.947,333.264 519.718 C 331.744 519.488,332.750 519.294,335.500 519.286 C 338.250 519.279,339.494 519.467,338.264 519.704 M182.511 523.000 L 184.500 525.500 182.250 523.595 C 181.012 522.547,180.000 521.235,180.000 520.678 C 180.000 520.122,180.117 519.854,180.261 520.083 C 180.404 520.313,181.417 521.625,182.511 523.000 M321.917 520.361 C 321.688 520.560,315.425 520.943,308.000 521.212 C 300.575 521.482,296.750 521.390,299.500 521.008 C 304.829 520.269,322.616 519.755,321.917 520.361 M366.833 524.516 C 374.394 525.350,382.587 526.374,385.040 526.791 C 389.896 527.617,389.287 526.569,392.423 539.500 C 392.905 541.484,392.387 541.501,326.704 541.564 C 265.384 541.623,251.707 542.041,253.469 543.803 C 253.840 544.173,274.166 544.328,298.639 544.147 C 346.682 543.792,389.279 544.739,388.411 546.144 C 388.114 546.624,388.913 547.435,390.186 547.945 C 391.676 548.543,377.901 548.940,351.500 549.061 C 328.950 549.164,297.788 549.305,282.250 549.374 C 264.257 549.454,253.958 549.863,253.882 550.500 C 253.722 551.852,252.267 546.024,252.118 543.436 C 251.990 541.200,253.703 540.096,269.371 532.319 C 284.248 524.934,294.819 523.340,330.293 523.133 C 344.847 523.048,358.055 523.548,366.833 524.516 M265.000 528.441 C 265.000 528.684,264.550 529.160,264.000 529.500 C 263.450 529.840,263.000 529.641,263.000 529.059 C 263.000 528.477,263.450 528.000,264.000 528.000 C 264.550 528.000,265.000 528.198,265.000 528.441 M203.390 544.250 C 206.474 550.633,208.044 562.239,207.884 577.474 C 207.738 591.345,207.387 589.863,205.577 567.724 C 204.359 552.836,203.716 549.060,201.617 544.474 C 198.411 537.471,200.016 537.268,203.390 544.250 M524.000 548.941 C 524.000 549.459,524.445 550.157,524.989 550.493 C 525.555 550.843,525.723 550.442,525.382 549.552 C 524.717 547.820,524.000 547.503,524.000 548.941 M249.027 573.500 L 248.312 585.500 248.156 573.917 C 248.025 564.202,248.487 559.965,249.538 561.250 C 249.650 561.388,249.420 566.900,249.027 573.500 M204.693 570.731 C 204.439 571.704,204.215 571.150,204.195 569.500 C 204.175 567.850,204.382 567.054,204.656 567.731 C 204.930 568.408,204.947 569.758,204.693 570.731 M569.000 599.612 C 571.098 601.974,570.857 601.882,567.500 599.041 C 565.300 597.180,561.475 593.642,559.000 591.180 L 554.500 586.703 560.500 591.751 C 563.800 594.527,567.625 598.064,569.000 599.612 M387.250 591.757 L 407.000 592.082 407.000 594.887 L 407.000 597.693 394.843 598.346 C 379.181 599.188,272.069 599.188,261.250 598.346 C 253.020 597.705,253.000 597.697,253.000 594.886 L 253.000 592.068 263.750 591.756 C 277.933 591.344,362.173 591.345,387.250 591.757 M574.500 605.000 C 575.495 606.100,576.085 607.000,575.810 607.000 C 575.535 607.000,574.495 606.100,573.500 605.000 C 572.505 603.900,571.915 603.000,572.190 603.000 C 572.465 603.000,573.505 603.900,574.500 605.000 M217.074 624.300 C 217.033 624.685,217.000 631.300,217.000 639.000 C 217.000 652.104,216.878 653.000,215.094 653.000 C 213.323 653.000,213.160 651.955,212.796 638.250 C 212.581 630.138,212.553 623.182,212.734 622.794 C 213.140 621.925,217.177 623.326,217.074 624.300 M223.500 625.000 C 223.160 625.550,222.432 626.000,221.882 626.000 C 221.332 626.000,221.160 625.550,221.500 625.000 C 221.840 624.450,222.568 624.000,223.118 624.000 C 223.668 624.000,223.840 624.450,223.500 625.000 M444.750 638.732 C 442.137 639.589,440.000 640.702,440.000 641.205 C 440.000 641.707,439.550 641.840,439.000 641.500 C 437.580 640.623,437.759 642.346,439.250 643.918 C 440.284 645.007,440.125 645.009,438.331 643.928 C 436.538 642.847,435.881 642.854,434.539 643.968 C 431.882 646.173,434.096 647.004,444.067 647.546 C 457.084 648.252,468.924 649.897,472.500 651.496 C 475.973 653.048,487.000 654.065,487.000 652.832 C 487.000 652.375,486.262 652.000,485.360 652.000 C 483.224 652.000,475.000 647.890,475.000 646.823 C 475.000 646.370,474.414 646.000,473.697 646.000 C 472.980 646.000,470.618 644.713,468.447 643.141 C 464.551 640.319,460.475 638.728,456.421 638.447 C 455.278 638.368,453.253 638.048,451.921 637.737 C 450.590 637.426,447.363 637.874,444.750 638.732 M429.603 645.833 C 429.320 646.292,429.743 646.667,430.544 646.667 C 431.345 646.667,432.000 646.292,432.000 645.833 C 432.000 645.375,431.577 645.000,431.059 645.000 C 430.541 645.000,429.886 645.375,429.603 645.833 M522.417 765.298 C 529.033 767.609,534.588 772.459,537.547 778.506 C 539.892 783.299,540.318 785.366,540.162 791.178 C 539.839 803.210,535.013 810.875,524.787 815.597 C 509.499 822.656,491.184 816.961,484.869 803.184 C 475.650 783.075,491.027 761.612,513.238 763.587 C 516.395 763.867,520.525 764.637,522.417 765.298 M289.930 765.000 C 293.404 765.000,293.840 765.330,295.548 769.250 C 296.567 771.587,300.260 779.575,303.756 787.000 C 307.252 794.425,310.229 801.955,310.373 803.733 C 311.031 811.912,314.614 807.586,322.986 788.500 C 333.176 765.272,333.284 765.084,336.500 765.026 C 338.150 764.997,340.625 764.720,342.000 764.412 C 344.446 763.864,344.456 763.887,342.500 765.470 C 340.621 766.990,340.509 768.193,340.655 785.294 C 340.899 814.131,340.874 813.731,342.571 815.429 C 344.000 816.857,343.636 817.000,338.571 817.000 C 333.069 817.000,332.013 816.387,334.035 814.365 C 334.729 813.671,334.842 806.162,334.378 791.622 C 333.997 779.683,333.363 770.272,332.970 770.708 C 332.576 771.143,327.622 781.625,321.959 794.000 C 316.297 806.375,311.538 816.664,311.383 816.865 C 311.229 817.066,309.556 813.916,307.667 809.865 C 305.777 805.814,301.899 797.565,299.050 791.534 C 296.201 785.503,292.944 778.416,291.812 775.784 C 290.680 773.153,289.406 771.000,288.981 771.000 C 288.556 771.000,288.142 780.275,288.062 791.612 C 287.943 808.424,288.193 812.645,289.416 814.512 C 290.880 816.746,290.835 816.797,287.481 816.702 C 284.497 816.618,284.216 816.402,285.332 815.052 C 286.272 813.916,286.689 807.566,286.890 791.332 C 287.154 770.016,287.085 769.085,285.082 767.082 C 282.601 764.601,282.407 763.558,284.582 764.393 C 285.452 764.727,287.858 765.000,289.930 765.000 M372.267 765.791 C 370.724 766.918,370.459 769.195,370.180 783.755 C 369.818 802.585,370.651 807.241,375.218 811.911 C 383.112 819.986,398.524 817.669,403.036 807.729 C 404.694 804.078,404.959 801.089,404.978 785.872 C 404.996 771.404,404.731 768.022,403.500 767.000 C 401.113 765.019,401.732 764.370,405.581 764.820 C 408.148 765.119,408.856 765.544,408.081 766.319 C 407.394 767.006,407.000 773.367,407.000 783.757 C 407.000 803.287,406.037 807.963,400.973 813.027 C 394.098 819.902,381.266 820.553,371.906 814.502 C 365.634 810.447,364.684 806.972,364.055 785.791 C 363.561 769.132,363.298 766.933,361.653 765.733 C 360.043 764.558,360.715 764.393,366.921 764.443 C 372.987 764.492,373.775 764.690,372.267 765.791 M566.189 766.039 C 564.110 767.976,564.000 768.897,564.000 784.414 C 564.000 793.399,564.294 802.220,564.654 804.018 C 565.617 808.835,572.574 815.649,577.461 816.562 C 581.964 817.403,588.933 815.865,592.555 813.230 C 597.552 809.596,598.431 805.890,598.826 786.801 L 599.192 769.102 596.500 766.409 C 593.845 763.754,593.840 763.725,596.154 764.345 C 597.444 764.690,599.824 764.979,601.441 764.986 C 604.226 764.999,604.279 765.075,602.441 766.417 C 600.668 767.712,600.457 769.510,599.999 787.167 C 599.450 808.310,598.822 810.854,593.160 814.886 C 588.107 818.484,582.141 819.515,575.067 818.014 C 567.103 816.324,563.066 813.604,560.250 808.030 C 558.162 803.897,558.000 802.265,558.000 785.347 C 558.000 771.862,557.675 766.907,556.750 766.309 C 555.648 765.596,557.667 765.170,566.939 764.157 C 567.882 764.054,567.624 764.702,566.189 766.039 M630.593 765.385 C 630.643 765.448,637.603 774.275,646.058 785.000 C 661.109 804.091,662.724 805.954,664.250 805.985 C 664.663 805.993,665.000 797.483,665.000 787.073 C 665.000 768.269,664.984 768.133,662.593 766.252 L 660.185 764.358 665.020 764.429 C 669.229 764.491,669.686 764.694,668.548 766.000 C 667.596 767.092,667.046 774.032,666.526 791.499 C 666.132 804.698,665.604 815.832,665.351 816.241 C 664.753 817.208,651.629 801.730,633.174 778.294 C 630.053 774.331,627.163 771.069,626.750 771.044 C 626.337 771.020,626.000 780.900,626.000 793.000 C 626.000 807.000,626.364 815.000,627.000 815.000 C 627.550 815.000,628.000 815.382,628.000 815.848 C 628.000 816.314,626.619 816.735,624.931 816.783 C 622.516 816.852,622.093 816.592,622.946 815.565 C 623.646 814.721,624.076 806.034,624.162 790.995 L 624.294 767.731 621.897 765.847 L 619.500 763.963 625.000 764.617 C 628.025 764.977,630.542 765.322,630.593 765.385 M705.250 764.986 L 720.000 765.000 720.000 767.500 C 720.000 768.875,719.550 770.000,719.000 770.000 C 718.450 770.000,718.000 769.571,718.000 769.047 C 718.000 767.471,710.955 766.012,703.316 766.006 L 696.133 766.000 695.816 775.884 C 695.370 789.820,694.902 789.003,703.323 788.985 C 710.965 788.968,711.965 788.639,713.911 785.500 C 714.950 783.824,715.058 783.797,714.576 785.332 C 714.259 786.339,714.000 788.772,714.000 790.737 C 714.000 794.170,713.927 794.244,712.120 792.609 C 710.634 791.263,708.700 790.970,702.876 791.204 L 695.511 791.500 695.506 803.000 L 695.500 814.500 705.352 814.787 C 715.804 815.092,717.460 814.550,719.079 810.291 C 719.559 809.031,720.412 808.000,720.975 808.000 C 722.368 808.000,722.266 809.118,720.487 813.378 L 718.973 817.000 702.928 817.000 C 691.802 817.000,687.084 816.672,687.542 815.932 C 687.905 815.344,688.762 815.078,689.445 815.341 C 690.247 815.648,690.579 815.052,690.380 813.659 C 690.211 812.471,689.892 801.703,689.671 789.728 C 689.311 770.159,689.079 767.740,687.385 765.821 C 685.513 763.701,685.518 763.691,688.000 764.329 C 689.375 764.683,697.138 764.979,705.250 764.986 M457.591 767.044 C 468.196 772.178,466.887 787.205,455.454 791.571 C 452.967 792.521,451.060 793.644,451.216 794.069 C 451.717 795.428,463.409 810.332,466.039 812.961 C 467.435 814.358,469.435 815.983,470.483 816.574 C 471.931 817.390,471.019 817.497,466.692 817.021 C 463.558 816.676,460.569 815.968,460.050 815.447 C 459.530 814.926,455.749 809.779,451.648 804.010 L 444.190 793.520 448.957 791.742 C 456.819 788.809,459.846 783.245,457.863 775.369 C 456.245 768.943,452.767 766.800,443.681 766.633 L 436.500 766.500 436.231 789.915 C 435.978 812.008,436.073 813.449,437.924 815.415 L 439.886 817.500 433.955 817.162 C 428.545 816.853,428.111 816.662,429.012 814.978 C 429.576 813.923,430.000 803.761,430.000 791.288 C 430.000 773.137,429.737 769.069,428.443 767.223 L 426.887 765.000 440.128 765.000 C 451.420 765.000,453.990 765.301,457.591 767.044 M503.500 766.222 C 498.558 767.974,495.313 770.758,492.383 775.762 C 489.860 780.071,489.606 781.406,489.576 790.500 C 489.541 801.514,491.024 805.849,496.658 811.197 C 504.660 818.791,518.294 818.935,526.162 811.509 C 535.611 802.591,536.470 785.811,528.100 773.645 C 523.150 766.451,512.185 763.142,503.500 766.222 M462.000 834.853 C 462.000 836.480,461.375 836.646,456.894 836.216 C 451.016 835.651,450.211 836.367,450.823 841.611 L 451.248 845.249 456.124 844.672 C 459.658 844.253,461.000 844.437,461.000 845.340 C 461.000 846.181,459.299 846.572,455.763 846.543 C 451.384 846.507,450.544 846.787,450.638 848.250 C 450.700 849.212,450.806 851.350,450.875 853.000 C 450.996 855.899,451.161 856.000,455.800 856.000 C 458.440 856.000,461.140 855.460,461.800 854.800 C 462.733 853.867,463.000 854.089,463.000 855.800 C 463.000 857.889,462.583 858.000,454.750 858.000 L 446.500 858.000 446.500 846.067 L 446.500 834.133 452.234 834.385 C 455.388 834.524,458.538 834.276,459.234 833.834 C 461.228 832.569,462.000 832.853,462.000 834.853 M552.078 835.164 C 556.007 837.372,559.000 842.058,559.000 846.000 C 559.000 849.640,555.909 854.995,552.915 856.544 C 547.094 859.554,538.998 857.699,535.648 852.586 C 533.333 849.052,533.555 842.455,536.132 838.287 C 539.626 832.633,545.521 831.479,552.078 835.164 M415.643 835.635 C 421.839 838.575,424.026 847.155,419.912 852.385 C 416.775 856.373,412.775 858.000,406.108 858.000 L 400.118 858.000 399.809 845.998 L 399.500 833.996 405.849 833.998 C 409.650 833.999,413.580 834.656,415.643 835.635 M508.171 835.655 C 509.177 836.565,510.000 838.224,510.000 839.342 C 510.000 841.229,509.800 841.182,507.195 838.687 C 503.333 834.987,497.346 834.938,493.924 838.581 C 492.048 840.578,491.500 842.255,491.500 846.000 C 491.500 855.101,499.425 858.991,507.632 853.918 C 509.484 852.774,511.000 852.330,511.000 852.933 C 511.000 855.094,504.580 857.992,499.785 857.996 C 495.934 857.999,494.422 857.431,491.535 854.896 C 488.380 852.127,488.000 851.259,488.000 846.831 C 488.000 840.820,489.133 838.499,493.314 835.950 C 497.374 833.475,505.582 833.312,508.171 835.655 M598.545 836.455 C 601.667 839.576,601.653 842.037,598.500 845.000 C 597.125 846.292,596.000 847.864,596.000 848.494 C 596.000 849.124,597.610 851.521,599.578 853.820 L 603.156 858.000 600.586 858.000 C 598.605 858.000,597.268 856.857,594.758 853.018 C 592.374 849.373,590.862 848.031,589.123 848.018 C 586.871 848.001,586.771 848.264,587.226 853.000 C 587.665 857.567,587.524 858.000,585.603 858.000 C 583.582 858.000,583.500 857.530,583.500 846.000 L 583.500 834.000 589.795 834.000 C 595.146 834.000,596.459 834.368,598.545 836.455 M543.500 835.945 C 538.712 837.905,536.492 843.575,538.154 849.595 C 540.558 858.301,552.467 858.213,554.881 849.471 C 556.285 844.385,554.592 839.332,550.689 836.952 C 547.204 834.827,546.480 834.726,543.500 835.945 M404.000 846.000 L 404.000 856.000 407.566 856.000 C 414.193 856.000,417.917 852.705,417.968 846.797 C 418.031 839.509,414.613 836.000,407.453 836.000 L 404.000 836.000 404.000 846.000 M587.667 836.667 C 587.300 837.033,587.000 839.283,587.000 841.667 C 587.000 845.935,587.051 846.000,590.429 846.000 C 594.205 846.000,597.000 843.873,597.000 841.000 C 597.000 839.979,596.293 838.436,595.429 837.571 C 593.852 835.994,588.914 835.419,587.667 836.667 M372.766 847.432 C 373.078 847.745,355.007 848.000,332.608 848.000 C 310.209 848.000,292.095 847.655,292.355 847.234 C 292.893 846.364,371.892 846.559,372.766 847.432 M715.882 846.994 C 716.913 847.596,700.989 847.884,672.000 847.786 C 646.975 847.702,630.100 847.378,634.500 847.067 C 648.752 846.057,714.179 845.998,715.882 846.994 " stroke="none" fill="black" fill-rule="evenodd"/></svg>